# xmcd CD database file
# Copyright (C) 1995-1998 Ti Kan
#
# Track frame offsets:
#	150
#	15684
#	32877
#	51493
#	84110
#	100519
#	117512
#	140066
#	160969
#	171166
#	183961
#	218553
#	240122
#	264954
#
# Disc length: 3924 seconds
#
# Revision: 1
# Processed by: cddbd v1.4b41PL2 Copyright (c) Steve Scherf et al.
# Submitted via: CDex 1.30PlusFR
#
DISCID=b00f520e
DTITLE=Tryo - Mamagubida
DYEAR=1900
DGENRE=Blues
TTITLE0=L'hymne De Nos Campagnes
TTITLE1=Pour Un Flirt Avec La Crise
TTITLE2=C'est Du Roots
TTITLE3=Salut Ô
TTITLE4=La Révolution
TTITLE5=Regardez-Les
TTITLE6=La Misère D'en Face
TTITLE7=Un Homme Qui Aime Les Femmes
TTITLE8=La Main Verte
TTITLE9=France Telecom
TTITLE10=Yakamonéyé
TTITLE11=Les Soldats De Plomb
TTITLE12=Suprématie
TTITLE13=Babylone
EXTD=ID3G:   0
EXTT0=
EXTT1=
EXTT2=
EXTT3=
EXTT4=
EXTT5=
EXTT6=
EXTT7=
EXTT8=
EXTT9=
EXTT10=
EXTT11=
EXTT12=
EXTT13=
PLAYORDER=
